<?xml version="1.0" encoding="utf-8"?>
<!-- Uploaded to: SVG Repo, www.svgrepo.com, Generator: SVG Repo Mixer Tools -->
<svg width="100px" height="100px" viewBox="0 0 1024 1024" class="icon"  version="1.1" xmlns="http://www.w3.org/2000/svg"><path d="M149.163008 685.952h89.286656c28.653568 0 51.881984 23.228416 51.881984 51.883008v89.285632c0 28.654592-23.228416 51.883008-51.881984 51.883008h-89.286656c-28.653568 0-51.883008-23.228416-51.883008-51.883008v-89.285632c0-28.654592 23.22944-51.883008 51.883008-51.883008m0-270.272512h89.286656c28.653568 0 51.881984 23.228416 51.881984 51.883008v89.286656c0 28.653568-23.228416 51.881984-51.881984 51.881984h-89.286656C120.50944 608.731136 97.28 585.50272 97.28 556.849152v-89.286656c0-28.654592 23.22944-51.883008 51.883008-51.883008m0-270.272512h89.286656c28.653568 0 51.881984 23.22944 51.881984 51.883008v89.286656c0 28.653568-23.228416 51.881984-51.881984 51.881984h-89.286656C120.50944 338.458624 97.28 315.230208 97.28 286.57664v-89.286656C97.28 168.636416 120.50944 145.408 149.163008 145.408" fill="#FFF200" /><path d="M238.44864 685.952h-89.286656C120.508416 685.952 97.28 709.18144 97.28 737.835008v89.285632c0 28.654592 23.228416 51.883008 51.881984 51.883008h89.286656c28.653568 0 51.883008-23.228416 51.883008-51.883008v-89.285632c0-28.654592-23.22944-51.883008-51.883008-51.883008m0 40.96c6.023168 0 10.923008 4.89984 10.923008 10.923008v89.285632c0 6.023168-4.89984 10.923008-10.923008 10.923008h-89.286656c-6.02112 0-10.921984-4.89984-10.921984-10.923008v-89.285632c0-6.023168 4.89984-10.923008 10.921984-10.923008h89.286656m0-311.232512h-89.286656c-28.653568 0-51.881984 23.228416-51.881984 51.883008v89.286656c0 28.653568 23.228416 51.881984 51.881984 51.881984h89.286656c28.653568 0 51.883008-23.228416 51.883008-51.881984v-89.286656c0-28.654592-23.22944-51.883008-51.883008-51.883008m0 40.96c6.023168 0 10.923008 4.89984 10.923008 10.923008v89.286656c0 6.022144-4.89984 10.921984-10.923008 10.921984h-89.286656c-6.02112 0-10.921984-4.89984-10.921984-10.921984v-89.286656c0-6.023168 4.89984-10.923008 10.921984-10.923008h89.286656m0-311.232512h-89.286656C120.508416 145.408 97.28 168.636416 97.28 197.289984v89.286656c0 28.653568 23.228416 51.881984 51.881984 51.881984h89.286656c28.653568 0 51.883008-23.228416 51.883008-51.881984v-89.286656c0-28.653568-23.22944-51.883008-51.883008-51.883008m0 40.96c6.023168 0 10.923008 4.89984 10.923008 10.923008v89.286656c0 6.022144-4.89984 10.921984-10.923008 10.921984h-89.286656c-6.02112 0-10.921984-4.89984-10.921984-10.921984v-89.286656c0-6.023168 4.89984-10.923008 10.921984-10.923008h89.286656m669.718528 576.805888H348.17536c-10.543104 0-19.233792 8.64256-19.233792 19.304448 0 10.73664 8.61184 19.305472 19.233792 19.305472h559.991808c10.544128 0 19.234816-8.64256 19.234816-19.305472 0-10.735616-8.61184-19.304448-19.234816-19.304448m0-270.272512H348.17536c-10.543104 0-19.233792 8.643584-19.233792 19.305472 0 10.735616 8.61184 19.304448 19.233792 19.304448h559.991808c10.544128 0 19.234816-8.64256 19.234816-19.304448 0-10.73664-8.61184-19.305472-19.234816-19.305472m0-270.272512H348.17536c-10.543104 0-19.233792 8.643584-19.233792 19.305472 0 10.73664 8.61184 19.305472 19.233792 19.305472h559.991808c10.544128 0 19.234816-8.64256 19.234816-19.305472 0-10.73664-8.61184-19.305472-19.234816-19.305472" fill="#000000" /></svg>