<svg version="1.1" id="Layer_1" xmlns="http://www.w3.org/2000/svg" xmlns:xlink="http://www.w3.org/1999/xlink" x="0px" y="0px"
	 width="100%" viewBox="0 0 500 300" enable-background="new 0 0 500 300" xml:space="preserve">
<path fill="#000538" opacity="1.000000" stroke="none" 
	d="
M326.000000,301.000000 
	C217.367126,301.000000 109.234261,301.000000 1.050695,301.000000 
	C1.050695,201.065063 1.050695,101.130096 1.050695,1.097562 
	C167.549500,1.097562 334.099091,1.097562 500.824341,1.097562 
	C500.824341,100.999748 500.824341,200.999847 500.824341,301.000000 
	C442.796844,301.000000 384.648407,301.000000 326.000000,301.000000 
M252.535767,160.152237 
	C268.683472,168.578491 289.943420,158.186157 295.063019,139.363937 
	C299.627960,122.581001 288.642700,105.222542 270.726166,101.008644 
	C264.416534,99.524651 258.254425,99.360748 252.219162,103.890625 
	C251.561081,103.905647 250.903015,103.920670 249.749680,103.398323 
	C234.959335,95.026627 212.491714,104.093903 207.056412,123.787674 
	C203.464615,136.801880 207.838089,147.957169 217.822403,155.981323 
	C227.492126,163.752625 238.890884,166.062943 251.298737,159.812515 
	C251.498352,159.787140 251.697952,159.761780 252.535767,160.152237 
M240.976837,194.431259 
	C240.976837,196.533295 240.976837,198.635330 240.976837,201.117996 
	C248.365219,200.398285 256.239624,203.579239 260.586060,194.779526 
	C263.236420,189.413651 262.111572,184.012497 258.559998,180.483124 
	C253.956085,175.907928 247.247574,177.408737 240.976837,177.658951 
	C240.976837,183.161392 240.976837,188.303192 240.976837,194.431259 
M274.122314,197.017181 
	C270.499908,196.163116 266.877533,195.309036 262.398743,194.253052 
	C265.191162,201.002396 265.195496,201.143646 271.007080,200.964874 
	C274.008728,200.872543 277.869659,201.205688 279.812683,199.550751 
	C284.910889,195.208405 282.806946,188.835419 276.191406,186.920471 
	C273.491333,186.138916 270.795715,185.342087 267.829498,184.473557 
	C270.262482,179.761002 272.934204,179.678589 276.466553,181.697769 
	C277.716125,182.412048 279.587646,182.038330 281.175201,182.161346 
	C281.246368,181.527328 281.317505,180.893326 281.388641,180.259308 
	C277.970123,176.677902 273.828033,175.980072 268.925720,177.162949 
	C264.110962,178.324692 263.419769,181.558701 263.990234,185.649689 
	C264.538330,189.580231 267.452820,189.979385 270.618256,190.044540 
	C271.773682,190.068298 273.069000,190.022034 274.043335,190.515472 
	C275.448761,191.227234 276.619781,192.401917 277.890808,193.379059 
	C276.894897,194.531921 275.898987,195.684784 274.122314,197.017181 
M224.664246,177.400543 
	C223.055801,177.476761 221.447357,177.552979 219.919525,177.625381 
	C218.529663,187.131882 218.772491,187.696518 223.912415,187.002289 
	C224.000198,185.437912 224.089890,183.839844 224.198807,181.899323 
	C225.249115,181.899323 226.047119,181.924683 226.843063,181.894867 
	C230.047729,181.774857 233.966263,181.451950 234.102417,185.742844 
	C234.255463,190.565338 230.082748,189.971161 226.757278,189.961136 
	C219.359283,189.938843 219.351227,189.956955 219.409012,197.219299 
	C219.418030,198.354080 219.537872,199.487976 219.611755,200.709747 
	C221.187576,200.709747 222.532028,200.709747 223.909821,200.709747 
	C224.023544,198.419907 224.120834,196.461243 224.232040,194.222000 
	C226.550735,194.222000 228.707733,194.344955 230.846024,194.197235 
	C235.791672,193.855591 238.562561,191.119965 238.883804,186.452621 
	C239.234070,181.363754 237.185745,178.621872 232.004456,177.703064 
	C229.904434,177.330643 227.710892,177.485580 224.664246,177.400543 
z"/>
<path fill="#FCFCFD" opacity="1.000000" stroke="none" 
	d="
M250.706329,159.688080 
	C238.890884,166.062943 227.492126,163.752625 217.822403,155.981323 
	C207.838089,147.957169 203.464615,136.801880 207.056412,123.787674 
	C212.491714,104.093903 234.959335,95.026627 249.773071,103.938644 
	C241.163605,108.589539 236.565094,116.028893 234.194809,124.747208 
	C230.547592,138.162277 236.997757,151.269623 250.706329,159.688080 
z"/>
<path fill="#005F9A" opacity="1.000000" stroke="none" 
	d="
M252.879196,103.879333 
	C258.254425,99.360748 264.416534,99.524651 270.726166,101.008644 
	C288.642700,105.222542 299.627960,122.581001 295.063019,139.363937 
	C289.943420,158.186157 268.683472,168.578491 252.440826,159.700333 
	C263.132324,153.294586 268.613617,143.772812 268.888794,131.840530 
	C269.169373,119.672562 262.584320,110.705772 252.879196,103.879333 
z"/>
<path fill="#58B9E7" opacity="1.000000" stroke="none" 
	d="
M252.549179,103.884979 
	C262.584320,110.705772 269.169373,119.672562 268.888794,131.840530 
	C268.613617,143.772812 263.132324,153.294586 252.121704,159.492416 
	C251.697952,159.761780 251.498352,159.787140 251.002533,159.750305 
	C236.997757,151.269623 230.547592,138.162277 234.194809,124.747208 
	C236.565094,116.028893 241.163605,108.589539 250.020706,104.207329 
	C250.903015,103.920670 251.561081,103.905647 252.549179,103.884979 
z"/>
<path fill="#F3F3F6" opacity="1.000000" stroke="none" 
	d="
M240.976837,193.938126 
	C240.976837,188.303192 240.976837,183.161392 240.976837,177.658951 
	C247.247574,177.408737 253.956085,175.907928 258.559998,180.483124 
	C262.111572,184.012497 263.236420,189.413651 260.586060,194.779526 
	C256.239624,203.579239 248.365219,200.398285 240.976837,201.117996 
	C240.976837,198.635330 240.976837,196.533295 240.976837,193.938126 
M257.018372,191.050873 
	C257.612335,183.371323 254.647583,181.036301 245.545731,182.374619 
	C245.545731,183.776154 245.545731,185.240845 245.545731,186.705551 
	C245.545731,189.656387 245.545731,192.607208 245.545731,195.757965 
	C250.088043,195.927414 254.571548,197.190094 257.018372,191.050873 
z"/>
<path fill="#F3F3F6" opacity="1.000000" stroke="none" 
	d="
M274.512695,196.927414 
	C275.898987,195.684784 276.894897,194.531921 277.890808,193.379059 
	C276.619781,192.401917 275.448761,191.227234 274.043335,190.515472 
	C273.069000,190.022034 271.773682,190.068298 270.618256,190.044540 
	C267.452820,189.979385 264.538330,189.580231 263.990234,185.649689 
	C263.419769,181.558701 264.110962,178.324692 268.925720,177.162949 
	C273.828033,175.980072 277.970123,176.677902 281.388641,180.259308 
	C281.317505,180.893326 281.246368,181.527328 281.175201,182.161346 
	C279.587646,182.038330 277.716125,182.412048 276.466553,181.697769 
	C272.934204,179.678589 270.262482,179.761002 267.829498,184.473557 
	C270.795715,185.342087 273.491333,186.138916 276.191406,186.920471 
	C282.806946,188.835419 284.910889,195.208405 279.812683,199.550751 
	C277.869659,201.205688 274.008728,200.872543 271.007080,200.964874 
	C265.195496,201.143646 265.191162,201.002396 262.398743,194.253052 
	C266.877533,195.309036 270.499908,196.163116 274.512695,196.927414 
z"/>
<path fill="#E7E7EC" opacity="1.000000" stroke="none" 
	d="
M225.112076,177.400543 
	C227.710892,177.485580 229.904434,177.330643 232.004456,177.703064 
	C237.185745,178.621872 239.234070,181.363754 238.883804,186.452621 
	C238.562561,191.119965 235.791672,193.855591 230.846024,194.197235 
	C228.707733,194.344955 226.550735,194.222000 224.232040,194.222000 
	C224.120834,196.461243 224.023544,198.419907 223.909821,200.709747 
	C222.532028,200.709747 221.187576,200.709747 219.611755,200.709747 
	C219.537872,199.487976 219.418030,198.354080 219.409012,197.219299 
	C219.351227,189.956955 219.359283,189.938843 226.757278,189.961136 
	C230.082748,189.971161 234.255463,190.565338 234.102417,185.742844 
	C233.966263,181.451950 230.047729,181.774857 226.843063,181.894867 
	C226.047119,181.924683 225.249115,181.899323 224.198807,181.899323 
	C224.089890,183.839844 224.000198,185.437912 223.912415,187.002289 
	C218.772491,187.696518 218.529663,187.131882 219.919525,177.625381 
	C221.447357,177.552979 223.055801,177.476761 225.112076,177.400543 
z"/>
<path fill="#000538" opacity="1.000000" stroke="none" 
	d="
M256.930450,191.462952 
	C254.571548,197.190094 250.088043,195.927414 245.545731,195.757965 
	C245.545731,192.607208 245.545731,189.656387 245.545731,186.705551 
	C245.545731,185.240845 245.545731,183.776154 245.545731,182.374619 
	C254.647583,181.036301 257.612335,183.371323 256.930450,191.462952 
z"/>
</svg>